<svg xmlns="http://www.w3.org/2000/svg" viewBox="0 0 1600 900" role="img" aria-labelledby="t d"><title id="t">Culinary Atlas global food exploration</title><desc id="d">Editorial illustration of a coastal landscape, market ingredients, and atlas route lines.</desc><defs><linearGradient id="sky" x1="0" y1="0" x2="1" y2="1"><stop stop-color="#f6d7a7"/><stop offset=".5" stop-color="#f9efe1"/><stop offset="1" stop-color="#b8d9d4"/></linearGradient><linearGradient id="sea" x1="0" y1="0" x2="0" y2="1"><stop stop-color="#315d6a"/><stop offset="1" stop-color="#102a36"/></linearGradient><filter id="s"><feDropShadow dx="0" dy="18" stdDeviation="22" flood-opacity=".22"/></filter></defs><rect width="1600" height="900" fill="url(#sky)"/><path d="M0 420C240 330 340 260 540 320s260 80 420 0 360-90 640 30v550H0z" fill="url(#sea)"/><path d="M0 360C170 240 310 160 470 210S720 320 890 230 1220 90 1600 180v250c-300-80-480 10-670 80S480 530 0 620z" fill="#243b36" opacity=".9"/><g opacity=".45" fill="none" stroke="#e7b96b" stroke-width="5" stroke-dasharray="18 16"><path d="M120 700C360 520 580 590 810 470s420-120 680 20"/><path d="M180 770C440 650 710 700 980 560s370-110 500-40"/></g><g filter="url(#s)"><ellipse cx="1040" cy="640" rx="320" ry="120" fill="#7a4d2e"/><circle cx="920" cy="590" r="110" fill="#c33b2c"/><circle cx="1015" cy="560" r="92" fill="#e65a31"/><circle cx="1115" cy="605" r="105" fill="#d84c25"/><path d="M840 670c120-100 250-100 380 0" fill="none" stroke="#f5cf79" stroke-width="38" stroke-linecap="round"/><rect x="1230" y="410" width="90" height="270" rx="25" fill="#b88939"/><rect x="1250" y="350" width="50" height="80" rx="12" fill="#5f3d1f"/><path d="M1275 440c-26 80-26 150 0 220" fill="none" stroke="#f8e9b7" stroke-width="18"/></g><g fill="#2f6b43"><ellipse cx="780" cy="650" rx="70" ry="24" transform="rotate(-26 780 650)"/><ellipse cx="850" cy="700" rx="70" ry="24" transform="rotate(24 850 700)"/><ellipse cx="1180" cy="700" rx="70" ry="24" transform="rotate(-18 1180 700)"/></g></svg>