<svg xmlns="http://www.w3.org/2000/svg" viewBox="0 0 1200 760" role="img" aria-labelledby="t d"><title id="t">Mexican pantry and kitchen tools</title><desc id="d">Editorial still life with dried chiles, masa, cacao, salsa, molcajete, and tortilla tools.</desc><defs><linearGradient id="g"><stop stop-color="#fff0cf"/><stop offset="1" stop-color="#f4c369"/></linearGradient><filter id="s"><feDropShadow dy="14" stdDeviation="16" flood-opacity=".2"/></filter></defs><rect width="1200" height="760" fill="url(#g)"/><path d="M0 610h1200v150H0z" fill="#74412b"/><g filter="url(#s)"><path d="M150 500c80-120 150-120 210 0" fill="none" stroke="#a6252e" stroke-width="42" stroke-linecap="round"/><path d="M260 470c85-110 160-105 225 10" fill="none" stroke="#d14b2e" stroke-width="36" stroke-linecap="round"/><circle cx="520" cy="485" r="105" fill="#e8c34b"/><circle cx="700" cy="480" r="100" fill="#7a2f1d"/><path d="M640 470c45-45 90-45 135 0" fill="none" stroke="#2b2018" stroke-width="22"/><path d="M850 360h210v180H850z" fill="#5a554f"/><path d="M890 320h130" stroke="#302d2a" stroke-width="34" stroke-linecap="round"/><rect x="930" y="510" width="180" height="60" rx="20" fill="#ad6f32"/><circle cx="1010" cy="500" r="70" fill="#c83d28"/></g><g fill="#2f7a43"><ellipse cx="165" cy="320" rx="90" ry="28" transform="rotate(-28 165 320)"/><ellipse cx="1040" cy="640" rx="85" ry="25" transform="rotate(20 1040 640)"/></g></svg>