<svg xmlns="http://www.w3.org/2000/svg" viewBox="0 0 1400 800" role="img" aria-labelledby="t d"><title id="t">Mexican cuisine and market colors</title><desc id="d">Editorial illustration of a Mexican market table with chiles, maize, cacao, pottery, and bright regional color.</desc><defs><linearGradient id="b" x1="0" y1="0" x2="1" y2="1"><stop stop-color="#f6c35c"/><stop offset=".45" stop-color="#ef7c3b"/><stop offset="1" stop-color="#2d7b66"/></linearGradient><filter id="s"><feDropShadow dy="16" stdDeviation="18" flood-opacity=".22"/></filter></defs><rect width="1400" height="800" fill="url(#b)"/><path d="M0 470c250-100 440-90 650 10s440 80 750-50v370H0z" fill="#264c43"/><g opacity=".28" fill="none" stroke="#fff2c8" stroke-width="8"><path d="M0 150h1400M0 260h1400"/><path d="M120 0v360M260 0v360M400 0v360"/></g><g filter="url(#s)"><ellipse cx="940" cy="610" rx="330" ry="110" fill="#763f2a"/><circle cx="800" cy="535" r="90" fill="#b5262e"/><circle cx="910" cy="505" r="78" fill="#e04d2e"/><circle cx="1020" cy="545" r="92" fill="#d62f32"/><path d="M760 650c120-115 275-118 430 0" fill="none" stroke="#e9bd49" stroke-width="52" stroke-linecap="round"/><path d="M1120 390c90 20 145 80 135 155-12 86-92 132-190 102-70-21-104-95-72-161 24-49 73-107 127-96z" fill="#5e2d1c"/><path d="M1060 530c70-25 135-8 180 50" fill="none" stroke="#191714" stroke-width="26"/></g><g fill="#2f7a42"><path d="M670 590c-120-80-140-165-50-210 100 65 115 150 50 210z"/><path d="M1090 660c80-115 160-125 210-48-55 88-135 108-210 48z"/></g></svg>