<svg xmlns="http://www.w3.org/2000/svg" viewBox="0 0 1000 700" role="img" aria-labelledby="t d"><title id="t">Regional food map of Mexico</title><desc id="d">Stylized atlas illustration of Mexico with regional color zones and culinary route lines.</desc><rect width="1000" height="700" fill="#ead8b8"/><g opacity=".24" stroke="#8e6a43"><path d="M0 100h1000M0 200h1000M0 300h1000M0 400h1000M0 500h1000M0 600h1000M100 0v700M200 0v700M300 0v700M400 0v700M500 0v700M600 0v700M700 0v700M800 0v700M900 0v700"/></g><path d="M130 255c110-70 220-84 334-48 86 27 151 88 242 86 82-2 138-58 225-46 4 74-53 119-119 145-78 31-119 93-186 142-76 55-177 64-270 34-84-27-126-96-184-153-46-45-90-91-42-160z" fill="#efc75d" stroke="#6d4a2e" stroke-width="9"/><path d="M174 278c88 5 172 27 248 65" stroke="#b92f32" stroke-width="22"/><path d="M413 218c70 44 123 92 160 150" stroke="#4a8b5d" stroke-width="22"/><path d="M560 344c85 3 161 22 231 58" stroke="#e47834" stroke-width="22"/><path d="M410 492c92 18 170 9 244-31" stroke="#8d5eaa" stroke-width="22"/><path d="M120 520C340 430 610 440 870 310" fill="none" stroke="#b92f32" stroke-width="5" stroke-dasharray="17 14"/><circle cx="310" cy="330" r="14" fill="#213f36"/><circle cx="520" cy="285" r="14" fill="#213f36"/><circle cx="710" cy="390" r="14" fill="#213f36"/></svg>