<svg xmlns="http://www.w3.org/2000/svg" viewBox="0 0 1200 760" role="img" aria-labelledby="t d"><title id="t">French pantry and kitchen tools</title><desc id="d">Editorial still life with Dijon mustard, herbs, sea salt, bread, cheese, and copper cookware.</desc><defs><linearGradient id="g"><stop stop-color="#fffaf0"/><stop offset="1" stop-color="#e5d3af"/></linearGradient><filter id="s"><feDropShadow dy="14" stdDeviation="16" flood-opacity=".18"/></filter></defs><rect width="1200" height="760" fill="url(#g)"/><path d="M0 610h1200v150H0z" fill="#6b4835"/><g filter="url(#s)"><rect x="120" y="280" width="170" height="240" rx="26" fill="#d8b744"/><rect x="150" y="230" width="110" height="70" rx="18" fill="#4f3b28"/><path d="M390 540c90-170 205-190 300-75 52 63 31 137-65 169-104 35-210-4-235-94z" fill="#d8b65f"/><path d="M640 470l190 35-72 145-180-33z" fill="#ead8ad"/><path d="M825 340h225v200H825z" fill="#b36b39"/><path d="M865 310h145" stroke="#6c3d25" stroke-width="34" stroke-linecap="round"/><circle cx="1000" cy="540" r="78" fill="#7d3040"/><circle cx="1070" cy="500" r="42" fill="#99485a"/></g><g fill="#5e7748"><ellipse cx="285" cy="540" rx="95" ry="25" transform="rotate(-30 285 540)"/><ellipse cx="820" cy="630" rx="82" ry="24" transform="rotate(18 820 630)"/></g><g fill="#f5efe1"><circle cx="330" cy="375" r="8"/><circle cx="350" cy="395" r="8"/><circle cx="370" cy="370" r="8"/><circle cx="390" cy="410" r="8"/></g></svg>