<svg xmlns="http://www.w3.org/2000/svg" viewBox="0 0 1400 800" role="img" aria-labelledby="t d"><title id="t">French cuisine and countryside</title><desc id="d">Editorial illustration of a French landscape with bread, cheese, herbs, grapes, and copper cookware.</desc><defs><linearGradient id="b" x1="0" y1="0" x2="1" y2="1"><stop stop-color="#efe2c7"/><stop offset=".5" stop-color="#d8c7a0"/><stop offset="1" stop-color="#6c7b61"/></linearGradient><filter id="s"><feDropShadow dy="16" stdDeviation="18" flood-opacity=".2"/></filter></defs><rect width="1400" height="800" fill="url(#b)"/><path d="M0 430c220-110 410-130 600-30s410 90 800-40v440H0z" fill="#495c47"/><path d="M0 540c250-65 480-45 720 45s430 40 680-60v275H0z" fill="#34463c"/><g filter="url(#s)"><ellipse cx="950" cy="620" rx="330" ry="105" fill="#6d4933"/><path d="M690 570c100-160 190-185 280-75 58 70 25 145-85 165-96 17-176-14-195-90z" fill="#d6b55f"/><path d="M930 470l180 30-70 145-175-28z" fill="#e8d3a0"/><circle cx="1120" cy="550" r="82" fill="#6d2b3f"/><circle cx="1180" cy="500" r="46" fill="#8a3b50"/><path d="M760 660c120-95 250-95 400 0" fill="none" stroke="#d5a64d" stroke-width="38" stroke-linecap="round"/><path d="M1160 355h145v235H1160z" fill="#a76534"/><path d="M1190 330h85" stroke="#6f3a20" stroke-width="30" stroke-linecap="round"/></g><g fill="#526f43"><ellipse cx="760" cy="410" rx="84" ry="26" transform="rotate(-22 760 410)"/><ellipse cx="1220" cy="650" rx="82" ry="25" transform="rotate(16 1220 650)"/></g></svg>