<svg xmlns="http://www.w3.org/2000/svg" viewBox="0 0 1000 700" role="img" aria-labelledby="t d"><title id="t">Regional food map of France</title><desc id="d">Stylized atlas illustration of France with regional color zones and culinary route lines.</desc><rect width="1000" height="700" fill="#e8dcc6"/><g opacity=".24" stroke="#886b49"><path d="M0 100h1000M0 200h1000M0 300h1000M0 400h1000M0 500h1000M0 600h1000M100 0v700M200 0v700M300 0v700M400 0v700M500 0v700M600 0v700M700 0v700M800 0v700M900 0v700"/></g><path d="M480 95c91 3 170 46 220 117 54 77 66 180 23 264-44 86-137 139-233 133-99-7-187-73-217-168-30-93-1-199 70-267 37-35 84-77 137-79z" fill="#efcf78" stroke="#6d4b2e" stroke-width="9"/><path d="M354 183c79 15 146 49 203 103" stroke="#5b7fa6" stroke-width="22"/><path d="M532 134c26 82 28 157 6 226" stroke="#b94232" stroke-width="22"/><path d="M351 376c86 24 171 24 256 0" stroke="#5d8a58" stroke-width="22"/><path d="M432 518c79 8 150-8 214-49" stroke="#a66a48" stroke-width="22"/><path d="M130 520C330 430 595 438 858 302" fill="none" stroke="#b94232" stroke-width="5" stroke-dasharray="17 14"/><circle cx="405" cy="260" r="14" fill="#243847"/><circle cx="560" cy="320" r="14" fill="#243847"/><circle cx="620" cy="455" r="14" fill="#243847"/></svg>