<svg xmlns="http://www.w3.org/2000/svg" viewBox="0 0 1200 760" role="img" aria-labelledby="t d"><title id="t">Italian pantry and kitchen tools</title><desc id="d">Editorial still life with tomatoes, olive oil, pasta, cheese, and copper cookware.</desc><defs><linearGradient id="g"><stop stop-color="#fff8e8"/><stop offset="1" stop-color="#e8d2ad"/></linearGradient><filter id="s"><feDropShadow dy="14" stdDeviation="16" flood-opacity=".18"/></filter></defs><rect width="1200" height="760" fill="url(#g)"/><path d="M0 610h1200v150H0z" fill="#7a4e32"/><g filter="url(#s)"><circle cx="240" cy="430" r="120" fill="#c83d2c"/><circle cx="370" cy="480" r="95" fill="#e55d36"/><rect x="500" y="220" width="110" height="330" rx="28" fill="#b68a42"/><rect x="530" y="160" width="50" height="80" rx="12" fill="#5f3a20"/><path d="M555 280c-30 100-30 180 0 250" fill="none" stroke="#fff1bd" stroke-width="20"/><path d="M680 510c120-120 250-120 390 0" fill="none" stroke="#efca72" stroke-width="54" stroke-linecap="round"/><path d="M740 360h280v170H740z" fill="#b56a35" rx="30"/><path d="M800 330h160" stroke="#6d3c22" stroke-width="34" stroke-linecap="round"/><path d="M160 560l180-130 150 150z" fill="#e1c26c"/></g><g fill="#2f6b43"><ellipse cx="170" cy="330" rx="86" ry="28" transform="rotate(-20 170 330)"/><ellipse cx="350" cy="330" rx="86" ry="28" transform="rotate(28 350 330)"/></g></svg>