<svg xmlns="http://www.w3.org/2000/svg" viewBox="0 0 1400 800" role="img" aria-labelledby="t d"><title id="t">Italian cuisine and countryside</title><desc id="d">Warm editorial illustration of an Italian hillside, tomatoes, olive oil, pasta, and cheese.</desc><defs><linearGradient id="b" x1="0" y1="0" x2="1" y2="1"><stop stop-color="#f2c078"/><stop offset=".5" stop-color="#f8ead4"/><stop offset="1" stop-color="#9fb58a"/></linearGradient><filter id="s"><feDropShadow dx="0" dy="16" stdDeviation="18" flood-opacity=".2"/></filter></defs><rect width="1400" height="800" fill="url(#b)"/><path d="M0 410c220-160 380-190 570-80s360 80 520-20 220-90 310-40v530H0z" fill="#657b4f"/><path d="M0 500c260-90 440-80 680 10s470 50 720-60v350H0z" fill="#3d5f3e"/><g filter="url(#s)"><ellipse cx="940" cy="610" rx="300" ry="100" fill="#83522f"/><circle cx="830" cy="555" r="95" fill="#c63d2d"/><circle cx="930" cy="530" r="78" fill="#e06136"/><circle cx="1020" cy="565" r="92" fill="#d5482c"/><path d="M770 660c130-110 280-115 430 0" fill="none" stroke="#f3cf7d" stroke-width="42" stroke-linecap="round"/><rect x="1150" y="350" width="85" height="290" rx="24" fill="#b98a3e"/><rect x="1170" y="300" width="45" height="65" rx="12" fill="#6b4325"/><path d="M1192 400c-22 90-22 150 0 220" fill="none" stroke="#f9efc3" stroke-width="16"/><path d="M650 590l150-120 130 160z" fill="#e5c97e"/></g><g fill="#2e6a42"><ellipse cx="735" cy="590" rx="70" ry="24" transform="rotate(-26 735 590)"/><ellipse cx="1080" cy="650" rx="76" ry="24" transform="rotate(20 1080 650)"/></g></svg>