<svg xmlns="http://www.w3.org/2000/svg" viewBox="0 0 1000 700" role="img" aria-labelledby="t d"><title id="t">Regional food map of Italy</title><desc id="d">Stylized atlas illustration showing Italy with regional color blocks and route lines.</desc><rect width="1000" height="700" fill="#e8dcc4"/><g opacity=".25" stroke="#8b6b45"><path d="M0 100h1000M0 200h1000M0 300h1000M0 400h1000M0 500h1000M0 600h1000M100 0v700M200 0v700M300 0v700M400 0v700M500 0v700M600 0v700M700 0v700M800 0v700M900 0v700"/></g><path d="M475 70c55 30 92 83 102 145 9 54-18 109 6 154 24 46 76 62 82 113 7 59-60 77-97 104-27 20-28 59-53 78-36 27-74-4-83-42-11-48 16-94-3-137-18-41-74-59-85-103-12-50 33-90 44-138 12-54-18-116 28-157 17-15 38-22 59-17z" fill="#f0c36c" stroke="#6d4b2e" stroke-width="8"/><path d="M441 115c42 12 86 38 112 72" stroke="#b9412c" stroke-width="18"/><path d="M398 265c55 12 119 7 173-14" stroke="#4c8a59" stroke-width="18"/><path d="M428 405c50 22 105 31 158 21" stroke="#d98532" stroke-width="18"/><path d="M463 537c38 4 76-3 110-21" stroke="#8b5ca8" stroke-width="18"/><path d="M332 583c-74 20-118 66-116 101 40 12 106 2 149-27 31-21 42-57 16-75-14-10-31-6-49 1z" fill="#d9a44d" stroke="#6d4b2e" stroke-width="8"/><path d="M724 611c57 6 88 37 83 67-43 17-89 1-114-28-16-19-2-43 31-39z" fill="#d9a44d" stroke="#6d4b2e" stroke-width="8"/><path d="M190 520C360 430 580 440 810 300" fill="none" stroke="#b9412c" stroke-width="5" stroke-dasharray="16 14"/></svg>